PathFileType	4	(X/Y/Z)	C:\Git\research_data\ESMAC_2023\simulations\TD07\pre\dynamic21_l\marker_experimental.trc
DataRate	CameraRate	NumFrames	NumMarkers	Units	OrigDataRate	OrigDataStartFrame	OrigNumFrames
200.000000	200.000000	4	54	mm	200.000000	336	385
Frame#	Time	C7			T10			CLAV			STRN			RBAK			LASI			RASI			SACR			RT2			RT3			RKNE			RS1			RS2			RS3			RANK			RHEE			RTOE			RM5D			LT1			LT2			LT3			LKNE			LS1			LS2			LS3			LANK			LHEE			LTOE			LM5D			RT1			*30			*31			*32			*33			*34			*35			*36			*37			*38			*39			*40			*41			*42			*43			*44			*45			*46			*47			*48			*49			*50			*51			*52			*53			
		X1	Y1	Z1	X2	Y2	Z2	X3	Y3	Z3	X4	Y4	Z4	X5	Y5	Z5	X6	Y6	Z6	X7	Y7	Z7	X8	Y8	Z8	X9	Y9	Z9	X10	Y10	Z10	X11	Y11	Z11	X12	Y12	Z12	X13	Y13	Z13	X14	Y14	Z14	X15	Y15	Z15	X16	Y16	Z16	X17	Y17	Z17	X18	Y18	Z18	X19	Y19	Z19	X20	Y20	Z20	X21	Y21	Z21	X22	Y22	Z22	X23	Y23	Z23	X24	Y24	Z24	X25	Y25	Z25	X26	Y26	Z26	X27	Y27	Z27	X28	Y28	Z28	X29	Y29	Z29	X30	Y30	Z30	X31	Y31	Z31	X32	Y32	Z32	X33	Y33	Z33	X34	Y34	Z34	X35	Y35	Z35	X36	Y36	Z36	X37	Y37	Z37	X38	Y38	Z38	X39	Y39	Z39	X40	Y40	Z40	X41	Y41	Z41	X42	Y42	Z42	X43	Y43	Z43	X44	Y44	Z44	X45	Y45	Z45	X46	Y46	Z46	X47	Y47	Z47	X48	Y48	Z48	X49	Y49	Z49	X50	Y50	Z50	X51	Y51	Z51	X52	Y52	Z52	X53	Y53	Z53	X54	Y54	Z54	

337	1.68	1642.588256835938	1262.34521484375	147.4690551757816	1624.014892578125	1040.647705078125	154.5596923828128	1770.936889648438	1214.153686523438	165.8146057128909	1829.071166992188	1080.826171875	156.6829528808597	1608.533081054688	1123.315307617188	239.0243682861331	1747.662719726562	842.1079101562501	23.96333885192903	1776.500854492188	840.6818847656251	276.6730651855472	1606.177978515625	882.4851074218751	170.317794799805	1780.03662109375	534.2313842773439	298.3400878906253	1824.778564453125	554.9931030273439	308.7385864257816	1866.226196289062	461.4512634277345	291.2061767578128	1844.042602539062	351.8188781738282	307.2187805175785	1826.781494140625	287.798553466797	300.9839172363285	1878.960571289062	297.6245117187501	312.1102905273441	1919.738647460938	99.49946594238293	288.1068115234378	1884.899658203125	56.25173950195324	239.8213958740238	2067.312744140625	95.42032623291028	280.8132019042973	2001.211791992188	65.85704040527357	310.3540344238285	1700.277709960938	635.6182861328126	8.055561065674141	1663.7001953125	581.6469726562501	19.84626960754425	1714.037841796875	573.9755249023439	27.32873916626008	1643.734252929688	432.3081970214845	55.87880706787139	1610.374755859375	303.9978637695314	54.45168304443389	1562.031616210938	256.739227294922	50.74841690063505	1604.5732421875	238.5723876953126	71.38557434082061	1516.761108398438	80.99186706542979	94.69391632080107	1470.576049804688	63.66426849365244	131.2976531982425	1668.552490234375	52.49442672729502	125.2333145141605	1589.074340820312	37.3453369140626	75.8503189086917	nan	nan	nan	nan	nan	nan	nan	nan	nan	nan	nan	nan	nan	nan	nan	nan	nan	nan	nan	nan	nan	nan	nan	nan	nan	nan	nan	nan	nan	nan	nan	nan	nan	nan	nan	nan	nan	nan	nan	nan	nan	nan	nan	nan	nan	nan	nan	nan	nan	nan	nan	nan	nan	nan	nan	nan	nan	nan	nan	nan	nan	nan	nan	nan	nan	nan	nan	nan	nan	nan	nan	nan	nan	nan	nan	
338	1.685	1648.692993164062	1261.046997070312	147.0787963867191	1630.03369140625	1039.35498046875	154.5749664306644	1777.008544921875	1212.674438476562	166.0826110839847	1835.170776367188	1079.36962890625	156.974761962891	1614.201782226562	1121.703979492188	238.2233428955081	1753.534545898438	841.0611572265626	23.86683654785189	1783.105224609375	838.9638061523439	276.6499633789066	1612.5009765625	881.0764770507814	170.8762207031253	1784.658935546875	531.5372314453126	296.758453369141	1829.238037109375	551.9308471679689	307.9891052246097	1872.533569335938	460.0130615234376	290.2147216796878	1853.63037109375	350.569793701172	307.0158996582035	1838.4755859375	286.0468139648439	301.5077819824222	1890.487548828125	297.5222167968751	311.8085327148441	1937.021606445312	100.3256454467775	288.4741516113285	1902.858764648438	56.12007904052746	240.7783508300785	2084.80712890625	99.70505523681653	279.6124267578129	2019.767944335938	68.62827301025403	310.0745544433598	1704.879516601562	634.8290405273439	8.132992744446113	1667.897583007812	581.1386718750001	19.92207336425812	1718.173706054688	573.0884399414064	27.43977737426789	1646.62109375	431.8415832519532	55.76918029785187	1612.208618164062	303.7645568847657	54.43037796020538	1563.487548828125	256.9340209960939	50.93021392822294	1605.952392578125	238.3531494140626	71.39717102050811	1516.967163085938	81.38942718505869	94.95753479003935	1470.74072265625	64.27445983886727	131.6534576416018	1668.681762695312	52.44775009155283	125.1724472045902	1589.020629882812	37.33615112304697	76.01398468017608	nan	nan	nan	nan	nan	nan	nan	nan	nan	nan	nan	nan	nan	nan	nan	nan	nan	nan	nan	nan	nan	nan	nan	nan	nan	nan	nan	nan	nan	nan	nan	nan	nan	nan	nan	nan	nan	nan	nan	nan	nan	nan	nan	nan	nan	nan	nan	nan	nan	nan	nan	nan	nan	nan	nan	nan	nan	nan	nan	nan	nan	nan	nan	nan	nan	nan	nan	nan	nan	nan	nan	nan	nan	nan	nan	
339	1.69	1654.827270507812	1259.722534179688	146.7329864501956	1636.0927734375	1038.037475585938	154.62419128418	1783.112915039062	1211.173950195312	166.3678741455082	1841.304077148438	1077.89501953125	157.2930145263675	1619.920776367188	1120.092163085938	237.493591308594	1759.442016601562	839.9986572265626	23.78247261047396	1789.740234375	837.2332763671876	276.640289306641	1618.85693359375	879.6477661132814	171.4383697509768	1789.350830078125	528.8779907226564	295.3056640625003	1833.735717773438	548.9165039062501	307.3355102539066	1878.923583984375	458.6004638671876	289.2650146484378	1863.209594726562	349.4575805664064	306.8693237304691	1850.1591796875	284.5257873535157	302.1703796386722	1901.921875	297.5535583496095	311.4952392578128	1953.821166992188	101.3426742553712	288.7470092773441	1920.293579101562	56.19156265258801	241.6485595703128	2101.70849609375	104.1701812744142	278.2336730957035	2037.760131835938	71.5980148315431	309.6497802734379	1709.595092773438	633.9918212890626	8.229701042175607	1672.226318359375	580.5756225585939	20.01602172851593	1722.435424804688	572.1700439453126	27.60577201843293	1649.634887695312	431.3522949218751	55.67773056030304	1614.131469726562	303.5115966796876	54.43266296386749	1565.02294921875	257.1408691406251	51.12471389770536	1607.407348632812	238.1260375976563	71.41716003417999	1517.192260742188	81.81824493408213	95.21324157714872	1470.9140625	64.93426513671884	132.0002288818362	1668.818481445312	52.39622116088877	125.1142578125003	1588.982055664062	37.32725524902354	76.18216705322295	nan	nan	nan	nan	nan	nan	nan	nan	nan	nan	nan	nan	nan	nan	nan	nan	nan	nan	nan	nan	nan	nan	nan	nan	nan	nan	nan	nan	nan	nan	nan	nan	nan	nan	nan	nan	nan	nan	nan	nan	nan	nan	nan	nan	nan	nan	nan	nan	nan	nan	nan	nan	nan	nan	nan	nan	nan	nan	nan	nan	nan	nan	nan	nan	nan	nan	nan	nan	nan	nan	nan	nan	nan	nan	nan	
340	1.695	1660.991821289062	1258.377075195312	146.4330749511722	1642.193969726562	1036.699829101562	154.7050323486331	1789.250366210938	1209.6591796875	166.6712799072269	1847.471923828125	1076.409545898438	157.6380462646488	1625.691650390625	1118.4853515625	236.8372192382816	1765.389038085938	838.9208984375001	23.71087074279817	1796.406127929688	835.5003662109376	276.6441040039066	1625.24755859375	878.2039794921876	172.0016174316409	1794.180786132812	526.2994995117189	294.018707275391	1838.346801757812	546.0097656250001	306.793365478516	1885.412963867188	457.2242126464845	288.3630371093753	1872.763671875	348.4712524414064	306.7693481445316	1861.783203125	283.2250366210939	302.9346313476566	1913.228515625	297.6935119628907	311.1655883789066	1970.086669921875	102.4968948364259	288.9061279296878	1937.155883789062	56.4207229614259	242.3977661132816	2117.971923828125	108.7339096069337	276.6913757324223	2055.140869140625	74.6853942871095	309.0684204101566	1714.416625976562	633.1076660156251	8.337692260742502	1676.679809570312	579.9584350585939	20.12145805358918	1726.818725585938	571.2182006835939	27.80635643005403	1652.778442382812	430.8380737304689	55.60327911376984	1616.148681640625	303.2395019531251	54.45454025268585	1566.642944335938	257.357147216797	51.32530212402373	1608.942626953125	237.8919830322266	71.44152069091827	1517.438720703125	82.28073120117197	95.453422546387	1471.097290039062	65.64676666259774	132.3280944824222	1668.959716796875	52.3405761718751	125.0614318847659	1588.960693359375	37.3214225769044	76.35052490234405	nan	nan	nan	nan	nan	nan	nan	nan	nan	nan	nan	nan	nan	nan	nan	nan	nan	nan	nan	nan	nan	nan	nan	nan	nan	nan	nan	nan	nan	nan	nan	nan	nan	nan	nan	nan	nan	nan	nan	nan	nan	nan	nan	nan	nan	nan	nan	nan	nan	nan	nan	nan	nan	nan	nan	nan	nan	nan	nan	nan	nan	nan	nan	nan	nan	nan	nan	nan	nan	nan	nan	nan	nan	nan	nan	
